<svg width="21" height="22" viewBox="0 0 21 22" fill="none" xmlns="http://www.w3.org/2000/svg">
    <path d="M5.04299 21.188C5.04299 20.954 4.99799 20.837 4.90799 20.837L4.28699 21.134C4.28699 21.008 4.21499 20.918 4.07099 20.864L3.85499 20.837C3.71099 20.837 3.53099 20.9 3.31499 21.026C3.27899 20.936 3.23399 20.846 3.17999 20.756C3.12599 20.666 3.08099 20.585 3.04499 20.513C2.81099 20.063 2.57699 19.568 2.34299 19.028C2.12699 18.47 1.91999 17.939 1.72199 17.435C1.54199 16.931 1.39799 16.535 1.28999 16.247C1.21799 16.013 1.13699 15.662 1.04699 15.194C0.956994 14.726 0.866994 14.132 0.776994 13.412C0.974994 13.538 1.12799 13.601 1.23599 13.601C1.36199 13.601 1.47899 13.412 1.58699 13.034C1.64099 13.106 1.73999 13.142 1.88399 13.142C1.99199 13.142 2.07299 13.106 2.12699 13.034L2.55899 12.386L3.04499 12.548H3.07199C3.10799 12.548 3.14399 12.53 3.17999 12.494C3.21599 12.458 3.26999 12.422 3.34199 12.386C3.48599 12.296 3.59399 12.251 3.66599 12.251L3.74699 12.278C4.19699 12.494 4.48499 12.89 4.61099 13.466C4.93499 14.834 5.25899 15.518 5.58299 15.518C5.90699 15.518 6.28499 15.176 6.71699 14.492C6.93299 14.15 7.14899 13.754 7.36499 13.304C7.59899 12.854 7.83299 12.35 8.06699 11.792C8.10299 12.008 8.13899 12.116 8.17499 12.116C8.26499 12.116 8.41799 11.891 8.63399 11.441C8.86799 10.991 9.23699 10.37 9.74099 9.578C10.029 9.092 10.389 8.543 10.821 7.931C11.271 7.319 11.748 6.689 12.252 6.041C12.756 5.393 13.242 4.781 13.71 4.205C14.196 3.629 14.628 3.134 15.006 2.72C15.384 2.306 15.663 2.036 15.843 1.91C16.527 1.442 17.067 0.991999 17.463 0.559999C17.445 0.685999 17.418 0.802999 17.382 0.911C17.364 1.001 17.355 1.064 17.355 1.1C17.355 1.172 17.391 1.208 17.463 1.208L18.219 0.829999V0.937999C18.219 1.082 18.255 1.154 18.327 1.154C18.381 1.154 18.489 1.073 18.651 0.911C18.813 0.748999 18.903 0.631999 18.921 0.559999L18.867 0.937999L19.785 0.398L19.569 0.884C19.857 0.685999 20.064 0.586999 20.19 0.586999C20.262 0.586999 20.316 0.631999 20.352 0.721999C20.388 0.793999 20.406 0.865999 20.406 0.937999C20.406 1.046 20.361 1.172 20.271 1.316C20.181 1.46 20.064 1.631 19.92 1.829C19.812 1.973 19.632 2.189 19.38 2.477C19.146 2.747 18.786 3.152 18.3 3.692C17.814 4.214 17.166 4.943 16.356 5.879C16.14 6.113 15.807 6.527 15.357 7.121C14.907 7.697 14.394 8.372 13.818 9.146C13.26 9.902 12.702 10.667 12.144 11.441C11.586 12.215 11.091 12.917 10.659 13.547C10.227 14.159 9.92099 14.618 9.74099 14.924L8.06699 17.759C7.70699 18.371 7.40999 18.875 7.17599 19.271C6.94199 19.649 6.76199 19.91 6.63599 20.054C6.36599 20.378 6.06899 20.666 5.74499 20.918L5.50199 20.783L5.28599 20.918L5.04299 21.188Z" fill="#352958"/>
</svg>
