<svg width="30" height="33" viewBox="0 0 30 33" fill="none" xmlns="http://www.w3.org/2000/svg">
    <rect x="1" y="6" width="26" height="26" rx="7" fill="#F8F6FF" stroke="#352958" stroke-width="2"/>
    <path d="M14.043 24.188C14.043 23.954 13.998 23.837 13.908 23.837L13.287 24.134C13.287 24.008 13.215 23.918 13.071 23.864L12.855 23.837C12.711 23.837 12.531 23.9 12.315 24.026C12.279 23.936 12.234 23.846 12.18 23.756C12.126 23.666 12.081 23.585 12.045 23.513C11.811 23.063 11.577 22.568 11.343 22.028C11.127 21.47 10.92 20.939 10.722 20.435C10.542 19.931 10.398 19.535 10.29 19.247C10.218 19.013 10.137 18.662 10.047 18.194C9.95702 17.726 9.86702 17.132 9.77702 16.412C9.97502 16.538 10.128 16.601 10.236 16.601C10.362 16.601 10.479 16.412 10.587 16.034C10.641 16.106 10.74 16.142 10.884 16.142C10.992 16.142 11.073 16.106 11.127 16.034L11.559 15.386L12.045 15.548H12.072C12.108 15.548 12.144 15.53 12.18 15.494C12.216 15.458 12.27 15.422 12.342 15.386C12.486 15.296 12.594 15.251 12.666 15.251L12.747 15.278C13.197 15.494 13.485 15.89 13.611 16.466C13.935 17.834 14.259 18.518 14.583 18.518C14.907 18.518 15.285 18.176 15.717 17.492C15.933 17.15 16.149 16.754 16.365 16.304C16.599 15.854 16.833 15.35 17.067 14.792C17.103 15.008 17.139 15.116 17.175 15.116C17.265 15.116 17.418 14.891 17.634 14.441C17.868 13.991 18.237 13.37 18.741 12.578C19.029 12.092 19.389 11.543 19.821 10.931C20.271 10.319 20.748 9.689 21.252 9.041C21.756 8.393 22.242 7.781 22.71 7.205C23.196 6.629 23.628 6.134 24.006 5.72C24.384 5.306 24.663 5.036 24.843 4.91C25.527 4.442 26.067 3.992 26.463 3.56C26.445 3.686 26.418 3.803 26.382 3.911C26.364 4.001 26.355 4.064 26.355 4.1C26.355 4.172 26.391 4.208 26.463 4.208L27.219 3.83V3.938C27.219 4.082 27.255 4.154 27.327 4.154C27.381 4.154 27.489 4.073 27.651 3.911C27.813 3.749 27.903 3.632 27.921 3.56L27.867 3.938L28.785 3.398L28.569 3.884C28.857 3.686 29.064 3.587 29.19 3.587C29.262 3.587 29.316 3.632 29.352 3.722C29.388 3.794 29.406 3.866 29.406 3.938C29.406 4.046 29.361 4.172 29.271 4.316C29.181 4.46 29.064 4.631 28.92 4.829C28.812 4.973 28.632 5.189 28.38 5.477C28.146 5.747 27.786 6.152 27.3 6.692C26.814 7.214 26.166 7.943 25.356 8.879C25.14 9.113 24.807 9.527 24.357 10.121C23.907 10.697 23.394 11.372 22.818 12.146C22.26 12.902 21.702 13.667 21.144 14.441C20.586 15.215 20.091 15.917 19.659 16.547C19.227 17.159 18.921 17.618 18.741 17.924L17.067 20.759C16.707 21.371 16.41 21.875 16.176 22.271C15.942 22.649 15.762 22.91 15.636 23.054C15.366 23.378 15.069 23.666 14.745 23.918L14.502 23.783L14.286 23.918L14.043 24.188Z" fill="#352958"/>
</svg>
