<svg width="18" height="18" viewBox="0 0 18 18" fill="none" xmlns="http://www.w3.org/2000/svg">
    <path fill-rule="evenodd" clip-rule="evenodd" d="M10.2401 4.50668L11.4304 5.66237L6.15253 10.9459C5.88769 11.2124 5.88769 11.6413 6.15253 11.9078C6.40384 12.1606 6.82366 12.1595 7.07229 11.9064L12.8791 6.09093C13.7269 5.23806 13.7269 3.86836 12.8791 3.01549C12.0703 2.20176 10.6392 2.21986 9.84652 3.01704L3.50848 9.35999C2.07752 10.799 2.07752 13.1098 3.50848 14.5489C4.89801 15.9463 7.28501 15.9235 8.65284 14.5476L16.0449 7.14635L17.2353 8.30193L9.84468 15.7018C7.82822 17.7302 4.36516 17.7632 2.31543 15.7019C0.247607 13.6224 0.247608 10.2865 2.31685 8.20556L8.65489 1.86261C10.0946 0.414785 12.6017 0.383074 14.0724 1.86272C15.5567 3.356 15.5567 5.75042 14.0711 7.24504L8.26774 13.057C7.37001 13.971 5.86818 13.9751 4.95914 13.0604C4.05789 12.1536 4.05789 10.7001 4.96065 9.79174L10.2401 4.50668Z" fill="#352958"/>
</svg>
