<svg width="25" height="25" viewBox="0 0 28 28" fill="none" xmlns="http://www.w3.org/2000/svg">
    <rect x="1" y="1" width="26" height="26" rx="7" fill="#F8F6FF" stroke="#352958" stroke-width="2"/>
    <g clip-path="url(#clip0_322_105)">
        <path d="M20.3542 10.8443C20.3206 10.0842 20.1926 9.66933 20.0859 9.39478C19.9606 9.05572 19.7625 8.75059 19.503 8.49713C19.2529 8.23787 18.9445 8.03945 18.6058 7.9144C18.3314 7.8077 17.9193 7.67959 17.1567 7.64596C16.3357 7.60927 16.0887 7.6001 14.0016 7.6001C11.9176 7.6001 11.6703 7.60927 10.8466 7.64596C10.087 7.67959 9.67189 7.8077 9.3971 7.9144C9.05842 8.03945 8.75337 8.23787 8.50028 8.49713C8.23771 8.74753 8.03934 9.05572 7.91432 9.39478C7.80734 9.66933 7.67926 10.0815 7.64595 10.8443C7.60896 11.6652 7.6001 11.9156 7.6001 14.0001C7.6001 16.0846 7.60896 16.332 7.64595 17.1559C7.67926 17.9157 7.80734 18.3309 7.91432 18.6057C8.03934 18.9442 8.23771 19.2496 8.49722 19.5028C8.74726 19.7623 9.05537 19.9608 9.39404 20.0858C9.66883 20.1925 10.0806 20.3209 10.8435 20.3542C11.6642 20.3909 11.9145 20.4001 13.9986 20.4001C16.0826 20.4001 16.3296 20.3909 17.1536 20.3542C17.9132 20.3209 18.3283 20.1925 18.6028 20.0858C19.2832 19.8232 19.8233 19.2832 20.0859 18.6024C20.1926 18.3278 20.3206 17.9157 20.3542 17.1529C20.3909 16.3289 20.4001 16.0846 20.4001 14.0001C20.4001 11.9156 20.3909 11.6682 20.3542 10.8443ZM13.9955 18.0074C11.7804 18.0074 9.98306 16.2097 9.98306 13.994C9.98306 11.7783 11.7804 9.98057 13.9955 9.98057C16.2107 9.98057 18.008 11.7783 18.008 13.994C18.008 16.2097 16.2107 18.0074 13.9955 18.0074ZM18.1666 10.759C17.6491 10.759 17.2297 10.3392 17.2297 9.82189C17.2297 9.30428 17.6491 8.88512 18.1666 8.88512C18.6838 8.88512 19.1035 9.30428 19.1035 9.82189C19.1035 10.3392 18.6838 10.759 18.1666 10.759Z" fill="#352958"/>
        <path d="M15.8356 15.8349C16.852 14.8183 16.852 13.1699 15.8356 12.1533C14.8192 11.1366 13.1712 11.1366 12.1548 12.1533C11.1384 13.1699 11.1384 14.8183 12.1548 15.8349C13.1712 16.8516 14.8192 16.8516 15.8356 15.8349Z" fill="#352958"/>
    </g>
    <defs>
        <clipPath id="clip0_322_105">
            <rect width="12.8" height="12.8" fill="white" transform="translate(7.6001 7.6001)"/>
        </clipPath>
    </defs>
</svg>
