<svg width="25" height="25" viewBox="0 0 28 28" fill="none" xmlns="http://www.w3.org/2000/svg">
    <rect x="1" y="1" width="26" height="26" rx="7" fill="#F8F6FF" stroke="#352958" stroke-width="2"/>
    <path fill-rule="evenodd" clip-rule="evenodd" d="M15.24 9.50668L16.4304 10.6624L11.1525 15.9459C10.8877 16.2124 10.8877 16.6413 11.1525 16.9078C11.4038 17.1606 11.8236 17.1595 12.0723 16.9064L17.8791 11.0909C18.7268 10.2381 18.7268 8.86836 17.8791 8.01549C17.0703 7.20176 15.6392 7.21986 14.8465 8.01704L8.50845 14.36C7.07749 15.799 7.07749 18.1098 8.50845 19.5489C9.89798 20.9463 12.285 20.9235 13.6528 19.5476L21.0448 12.1463L22.2353 13.3019L14.8447 20.7018C12.8282 22.7302 9.36513 22.7632 7.31539 20.7019C5.24758 18.6224 5.24758 15.2865 7.31682 13.2056L13.6549 6.86261C15.0945 5.41478 17.6017 5.38307 19.0724 6.86272C20.5567 8.356 20.5567 10.7504 19.0711 12.245L13.2677 18.057C12.37 18.971 10.8681 18.9751 9.95911 18.0604C9.05786 17.1536 9.05786 15.7001 9.96062 14.7917L15.24 9.50668Z" fill="#352958"/>
</svg>
