<svg width="25" height="25" viewBox="0 0 28 28" fill="none" xmlns="http://www.w3.org/2000/svg">
    <rect x="1" y="1" width="26" height="26" rx="7" fill="#352958" stroke="#352958" stroke-width="2"/>
    <g clip-path="url(#clip0_322_122)">
        <path fill-rule="evenodd" clip-rule="evenodd" d="M19.7702 15.23C20.3009 15.7482 20.8611 16.2357 21.3371 16.8061C21.5474 17.0596 21.7464 17.3212 21.8987 17.6154C22.1145 18.0336 21.9191 18.4938 21.5441 18.5187L19.2132 18.5177C18.612 18.5676 18.1324 18.3255 17.7292 17.9145C17.4064 17.5858 17.1076 17.2359 16.7973 16.8961C16.67 16.7572 16.5369 16.6266 16.3778 16.5233C16.0596 16.3167 15.7834 16.38 15.6016 16.7118C15.4164 17.0494 15.3744 17.4231 15.3562 17.7993C15.3312 18.3482 15.1653 18.4925 14.6139 18.5176C13.4357 18.5732 12.3174 18.3949 11.2786 17.8005C10.3627 17.2765 9.65251 16.5368 9.03434 15.6993C7.83077 14.0685 6.90907 12.2766 6.08068 10.4345C5.89422 10.0194 6.03058 9.79664 6.48852 9.78875C7.24893 9.77398 8.00924 9.77503 8.77055 9.7877C9.07961 9.79222 9.28421 9.96949 9.40354 10.2615C9.81495 11.273 10.3183 12.2355 10.9502 13.1276C11.1185 13.3651 11.2901 13.6026 11.5344 13.7698C11.8047 13.9549 12.0106 13.8935 12.1377 13.5924C12.2184 13.4015 12.2537 13.1958 12.2719 12.9913C12.3322 12.2878 12.3401 11.5855 12.2344 10.8844C12.1696 10.4469 11.9231 10.1636 11.4865 10.0808C11.2638 10.0386 11.2969 9.95571 11.4048 9.82855C11.5922 9.60923 11.7684 9.47271 12.1196 9.47271H14.7539C15.1687 9.55456 15.2608 9.74086 15.3175 10.1582L15.3198 13.0843C15.3153 13.2459 15.4005 13.7253 15.6915 13.8322C15.9243 13.9083 16.0778 13.722 16.2176 13.5743C16.8483 12.9049 17.2985 12.1138 17.7006 11.2946C17.8791 10.9344 18.0325 10.5603 18.1812 10.1865C18.2914 9.90919 18.4643 9.77272 18.7768 9.77876L21.3121 9.78103C21.3873 9.78103 21.4634 9.78213 21.5362 9.79459C21.9634 9.8674 22.0805 10.0512 21.9485 10.4684C21.7406 11.1229 21.3361 11.6684 20.9406 12.2164C20.5177 12.8014 20.0655 13.3664 19.6463 13.9549C19.261 14.4923 19.2916 14.7632 19.7702 15.23Z" fill="#F8F6FF"/>
    </g>
    <defs>
        <clipPath id="clip0_322_122">
            <rect width="16" height="16" fill="white" transform="translate(6 6)"/>
        </clipPath>
    </defs>
</svg>
