<svg width="51" height="51" viewBox="0 0 51 51" fill="none" xmlns="http://www.w3.org/2000/svg">
    <g clip-path="url(#clip0_322_71)">
        <path d="M25.5 51C39.5616 51 51 39.5616 51 25.5C51 11.4384 39.5616 2.81472e-06 25.5 1.58542e-06C11.4384 3.56116e-07 -3.5629e-07 11.4404 -1.58542e-06 25.5C-2.81454e-06 39.5596 11.4384 51 25.5 51ZM25.5 3.95041C37.3809 3.95041 47.0496 13.6171 47.0496 25.5C47.0496 37.3829 37.3809 47.0496 25.5 47.0496C13.6171 47.0496 3.95041 37.3829 3.95041 25.5C3.95041 13.6171 13.6191 3.95041 25.5 3.95041Z" fill="#352958"/>
        <path d="M14.2217 22.7742L24.0978 32.6502C24.8682 33.4166 26.1125 33.4166 26.8829 32.6502L36.7589 22.7742C37.3929 22.0355 37.3929 20.9432 36.7589 20.2045C36.0498 19.3768 34.8015 19.2801 33.9738 19.9892L25.5002 28.4628L17.0068 19.9891C16.2364 19.2227 14.9921 19.2227 14.2217 19.9891C13.4553 20.7595 13.4553 22.0039 14.2217 22.7742Z" fill="#352958"/>
    </g>
    <defs>
        <clipPath id="clip0_322_71">
            <rect width="51" height="51" fill="white" transform="translate(51 51) rotate(-180)"/>
        </clipPath>
    </defs>
</svg>
