<svg width="25" height="25" viewBox="0 0 28 28" fill="none" xmlns="http://www.w3.org/2000/svg">
    <rect x="0.999969" y="1" width="26" height="26" rx="7" fill="#352958" stroke="#352958" stroke-width="2"/>
    <g clip-path="url(#clip0_322_131)">
        <path d="M20.3542 10.8443C20.3206 10.0842 20.1925 9.66933 20.0858 9.39478C19.9605 9.05572 19.7625 8.75059 19.5029 8.49713C19.2529 8.23787 18.9445 8.03945 18.6058 7.9144C18.3313 7.8077 17.9193 7.67959 17.1567 7.64596C16.3356 7.60927 16.0887 7.6001 14.0016 7.6001C11.9176 7.6001 11.6703 7.60927 10.8465 7.64596C10.087 7.67959 9.67186 7.8077 9.39707 7.9144C9.05839 8.03945 8.75334 8.23787 8.50025 8.49713C8.23768 8.74753 8.03931 9.05572 7.91429 9.39478C7.80731 9.66933 7.67923 10.0815 7.64592 10.8443C7.60893 11.6652 7.60007 11.9156 7.60007 14.0001C7.60007 16.0846 7.60893 16.332 7.64592 17.1559C7.67923 17.9157 7.80731 18.3309 7.91429 18.6057C8.03931 18.9442 8.23768 19.2496 8.49719 19.5028C8.74723 19.7623 9.05534 19.9608 9.39401 20.0858C9.6688 20.1925 10.0805 20.3209 10.8435 20.3542C11.6642 20.3909 11.9145 20.4001 13.9985 20.4001C16.0826 20.4001 16.3295 20.3909 17.1536 20.3542C17.9132 20.3209 18.3283 20.1925 18.6028 20.0858C19.2832 19.8232 19.8233 19.2832 20.0858 18.6024C20.1925 18.3278 20.3206 17.9157 20.3542 17.1529C20.3909 16.3289 20.4001 16.0846 20.4001 14.0001C20.4001 11.9156 20.3909 11.6682 20.3542 10.8443ZM13.9955 18.0074C11.7803 18.0074 9.98303 16.2097 9.98303 13.994C9.98303 11.7783 11.7803 9.98057 13.9955 9.98057C16.2106 9.98057 18.0079 11.7783 18.0079 13.994C18.0079 16.2097 16.2106 18.0074 13.9955 18.0074ZM18.1666 10.759C17.6491 10.759 17.2297 10.3392 17.2297 9.82189C17.2297 9.30428 17.6491 8.88512 18.1666 8.88512C18.6838 8.88512 19.1034 9.30428 19.1034 9.82189C19.1034 10.3392 18.6838 10.759 18.1666 10.759Z" fill="#F8F6FF"/>
        <path d="M15.8355 15.8349C16.8519 14.8183 16.8519 13.1699 15.8355 12.1533C14.8191 11.1366 13.1711 11.1366 12.1547 12.1533C11.1383 13.1699 11.1383 14.8183 12.1547 15.8349C13.1711 16.8516 14.8191 16.8516 15.8355 15.8349Z" fill="#F8F6FF"/>
    </g>
    <defs>
        <clipPath id="clip0_322_131">
            <rect width="12.8" height="12.8" fill="white" transform="translate(7.60007 7.6001)"/>
        </clipPath>
    </defs>
</svg>
