<svg width="386" height="70" viewBox="0 0 386 70" fill="none" xmlns="http://www.w3.org/2000/svg">
    <path d="M15.9898 9.64551C17.5737 9.64551 18.221 10.1126 18.221 11.8712V20.7738H30.3958C31.9797 20.7738 32.5306 21.4195 32.5306 22.9994V26.2417C32.5306 27.8216 31.9797 28.4674 30.3958 28.4674H18.221V50.0781C18.221 54.9965 19.0611 58.1427 20.7276 59.7226C22.394 61.3025 25.5617 62.1269 30.203 62.1269C31.9659 62.1269 32.5306 62.594 32.5306 64.3525V67.691C32.5306 69.2709 31.9797 69.8204 30.203 69.9166C22.6695 70.0952 17.4635 68.8038 14.4886 65.9324C11.4174 63.1572 9.92995 57.9641 9.92995 50.2567V28.4674H2.21737C0.647306 28.4674 0 27.8216 0 26.2417V22.9994C0 21.2409 0.647306 20.7738 2.23114 20.7738H9.94372V11.8712C9.94372 10.1126 10.4946 9.64551 12.0785 9.64551H15.9898Z" fill="#333333"/>
    <path d="M64.5127 19.3857C66.2755 19.3857 66.7438 20.0314 66.7438 21.6113V24.7575C66.7438 26.3374 66.2755 26.9831 64.5127 26.9831H61.2624C57.5438 26.9831 54.0181 27.5327 50.5749 28.563C49.7348 28.8378 49.2803 29.4973 49.2803 30.4178V66.3991C49.2803 68.1576 48.8121 68.6247 47.0492 68.6247H43.1516C41.5677 68.6247 41.0168 67.979 41.0168 66.3991V27.4502C41.0168 24.4827 41.6642 23.466 44.5426 22.257C49.1839 20.4985 54.8582 19.4819 61.5516 19.3857H64.5127Z" fill="#333333"/>
    <path d="M112.188 20.7711C113.951 20.7711 114.419 21.2382 114.419 22.9967V61.6571C114.419 64.6246 113.772 65.6412 110.893 66.8502C105.219 68.9797 99.3658 69.9964 93.1406 69.9964C80.5939 69.9964 74.2723 63.8827 74.2723 51.6416V22.9967C74.2723 21.2382 74.7406 20.7711 76.5035 20.7711H80.4011C81.9849 20.7711 82.5358 21.4168 82.5358 22.9967V51.3669C82.5358 58.6895 86.4334 62.3989 94.2424 62.3989C97.8646 62.3989 101.308 61.8494 104.751 60.819C105.687 60.3519 106.142 59.7062 106.142 58.6895V22.9967C106.142 21.2382 106.789 20.7711 108.373 20.7711H112.188Z" fill="#333333"/>
    <path d="M123.717 39.224C123.717 26.612 131.057 19.3855 144.72 19.3855C158.478 19.3855 165.723 27.0791 165.723 38.5783V43.9501C165.723 46.0795 164.607 47.1924 162.279 47.1924H131.98V51.6437C131.98 58.7877 136.346 62.7719 144.43 62.7719C150.476 62.7719 154.842 60.6424 157.349 56.3697C158.464 54.7898 159.387 54.515 160.971 55.5317L163.478 56.8231C165.061 57.6612 165.337 58.8564 164.318 60.4363C160.696 66.8385 154.002 69.9846 144.334 69.9846C130.479 69.9846 123.703 62.5658 123.703 50.6957V39.224H123.717ZM157.459 38.1112C157.459 30.6923 152.997 26.4334 144.72 26.4334C136.442 26.4334 131.98 30.7885 131.98 38.1112V40.8039H157.445V38.1112H157.459Z" fill="#333333"/>
    <path d="M180.406 59.0612C184.028 59.0612 185.143 60.174 185.143 63.7873V64.5292C185.143 68.1424 184.028 69.1591 180.406 69.1591H179.855C176.233 69.1591 175.117 68.1424 175.117 64.5292V63.7873C175.117 60.174 176.233 59.0612 179.855 59.0612H180.406Z" fill="#333333"/>
    <path d="M193.421 38.0166C193.421 26.2426 200.39 19.3734 214.245 19.3734C224.753 19.3734 231.254 23.5499 233.857 31.793C234.408 33.373 233.953 34.3896 232.369 34.9392L229.119 35.9558C227.632 36.6015 226.612 36.1344 225.965 34.472C224.299 29.2789 220.291 26.6823 213.887 26.6823C205.981 26.6823 201.808 30.6665 201.808 37.6182V51.6178C201.808 58.5695 205.995 62.6498 213.887 62.6498C220.305 62.6498 224.299 59.9571 226.061 54.5853C226.805 52.8268 227.453 52.4558 229.215 53.1015L232.466 54.0358C234.05 54.6815 234.6 55.6981 234.05 57.1819C230.978 65.7136 224.202 69.9725 213.694 69.9725C200.211 69.9725 193.435 63.117 193.435 51.2468V38.0166H193.421Z" fill="#333333"/>
    <path d="M242.879 37.1785C242.879 26.0503 250.688 19.3734 263.703 19.3734C276.994 19.3734 284.623 26.0503 284.623 37.1785V52.291C284.623 63.3231 277.007 70 263.703 70C250.688 70 242.879 63.3231 242.879 52.291V37.1785ZM276.332 37.0961C276.332 30.6939 271.595 26.9021 263.689 26.9021C255.88 26.9021 251.143 30.7077 251.143 37.0961V52.3047C251.143 58.7069 255.88 62.4987 263.689 62.4987C271.595 62.4987 276.332 58.6931 276.332 52.3047V37.0961Z" fill="#333333"/>
    <path d="M294.55 38.2894C294.55 26.0483 300.871 19.3714 313.418 19.3714C317.04 19.3714 321.323 20.0171 326.433 21.4047V2.22565C326.433 0.467111 327.08 0 328.664 0H332.562C334.146 0 334.697 0.645713 334.697 2.22565V62.0297C334.697 65.0934 334.049 65.9177 331.074 67.1267C326.061 69.0775 320.483 69.998 314.437 69.998C301.147 69.998 294.55 63.7882 294.55 51.3548V38.2894ZM326.433 29.0159C321.971 27.6283 318.156 26.9826 315.002 26.9826C306.917 26.9826 302.923 30.8706 302.923 38.5779V51.0937C302.923 58.6087 307.014 62.4006 315.195 62.4006C319.01 62.4006 322.26 61.9335 325.138 60.9168C325.979 60.6421 326.433 59.9963 326.433 59.1583V29.0159Z" fill="#333333"/>
    <path d="M343.994 39.2242C343.994 26.6122 351.335 19.3857 364.997 19.3857C378.756 19.3857 386 27.0793 386 38.5785V43.9502C386 46.0797 384.884 47.1925 382.557 47.1925H352.257V51.6438C352.257 58.7879 356.623 62.7721 364.708 62.7721C370.754 62.7721 375.12 60.6426 377.626 56.3699C378.742 54.79 379.665 54.5152 381.248 55.5319L383.755 56.8233C385.339 57.6613 385.614 58.8566 384.595 60.4365C380.973 66.8387 374.28 69.9848 364.611 69.9848C350.756 69.9848 343.98 62.566 343.98 50.6959V39.2242H343.994ZM377.736 38.1114C377.736 30.6925 373.274 26.4336 364.997 26.4336C356.72 26.4336 352.257 30.7887 352.257 38.1114V40.8041H377.723V38.1114H377.736Z" fill="#333333"/>
</svg>
